<?xml version="1.0" encoding="UTF-8"?>
<svg width="44px" height="34px" viewBox="0 0 44 34" version="1.1" xmlns="http://www.w3.org/2000/svg" xmlns:xlink="http://www.w3.org/1999/xlink">
    <!-- Generator: sketchtool 55.2 (78181) - https://sketchapp.com -->
    <title>2C715732-C09B-463F-8286-C392A6CA2297</title>
    <desc>Created with sketchtool.</desc>
    <g id="Page-1" stroke="none" stroke-width="1" fill="none" fill-rule="evenodd">
        <g id="Index" transform="translate(-778.000000, -4593.000000)">
            <g id="Services" transform="translate(230.000000, 4032.000000)">
                <g id="BRAND-IDENTITY" transform="translate(390.500000, 552.000000)">
                    <g id="camera" transform="translate(153.250000, 0.000000)">
                        <g id="icomoon-ignore"></g>
                        <path d="M44.191875,14.737125 L37.025625,14.737125 L32.859125,10.560875 C32.85425,10.556 32.849375,10.55275 32.846125,10.547875 L32.838,10.541375 C32.212375,9.92225 31.35275,9.540375 30.402125,9.540375 L21.73925,9.540375 C20.73175,9.540375 19.83475,9.975875 19.201,10.66 L19.19775,10.65025 L15.117375,14.73875 L7.804875,14.73875 C5.890625,14.73875 4.340375,16.290625 4.340375,18.204875 L4.340375,38.99675 C4.340375,40.911 5.89225,42.462875 7.804875,42.462875 L44.19025,42.462875 C46.1045,42.462875 47.656375,40.911 47.656375,38.99675 L47.656375,18.204875 C47.656375,16.290625 46.1045,14.73875 44.19025,14.73875 L44.191875,14.737125 Z M45.92575,38.995125 C45.92575,39.949 45.147375,40.727375 44.191875,40.727375 L7.8065,40.727375 C6.851,40.727375 6.07425,39.949 6.07425,38.995125 L6.07425,18.20325 C6.07425,17.24775 6.852625,16.471 7.8065,16.471 L15.83725,16.471 L18.44375,13.859625 L18.486,13.986375 L20.475,11.834875 C20.811375,11.470875 21.2615,11.271 21.740875,11.271 L30.40375,11.271 C30.862,11.271 31.29425,11.448125 31.633875,11.7845 L36.307375,16.469375 L44.191875,16.469375 C45.147375,16.469375 45.92575,17.246125 45.92575,18.201625 L45.92575,38.9935 L45.92575,38.995125 Z" id="Shape" fill="#3498DB"></path>
                        <path d="M26,16.471 C19.7795,16.471 14.737125,21.51175 14.737125,27.73225 C14.737125,33.95275 19.7795,38.99675 26,38.99675 C32.2205,38.99675 37.262875,33.95275 37.262875,27.73225 C37.262875,21.51175 32.2205,16.471 26,16.471 L26,16.471 Z M26,37.262875 C20.74475,37.262875 16.471,32.9875 16.471,27.73225 C16.471,22.477 20.746375,18.204875 26,18.204875 C31.253625,18.204875 35.529,22.478625 35.529,27.73225 C35.529,32.9875 31.253625,37.262875 26,37.262875 L26,37.262875 Z" id="Shape" fill="#3498DB"></path>
                        <path d="M26,19.9355 C21.692125,19.9355 18.20325,23.424375 18.20325,27.730625 C18.20325,32.036875 21.69375,35.529 26,35.529 C30.30625,35.529 33.79675,32.036875 33.79675,27.730625 C33.79675,23.424375 30.30625,19.9355 26,19.9355 L26,19.9355 Z M26,33.79675 C22.65575,33.79675 19.9355,31.074875 19.9355,27.730625 C19.9355,24.386375 22.65575,21.66775 26,21.66775 C29.34425,21.66775 32.0645,24.386375 32.0645,27.730625 C32.0645,31.074875 29.34425,33.79675 26,33.79675 L26,33.79675 Z" id="Shape" fill="#3498DB"></path>
                    </g>
                </g>
            </g>
        </g>
    </g>
</svg>