<?xml version="1.0" encoding="UTF-8"?>
<svg width="44px" height="36px" viewBox="0 0 44 36" version="1.1" xmlns="http://www.w3.org/2000/svg" xmlns:xlink="http://www.w3.org/1999/xlink">
    <!-- Generator: sketchtool 55.2 (78181) - https://sketchapp.com -->
    <title>C4A39A22-FB2B-492C-88AD-386957BB9E7B</title>
    <desc>Created with sketchtool.</desc>
    <g id="Page-1" stroke="none" stroke-width="1" fill="none" fill-rule="evenodd">
        <g id="Index" transform="translate(-388.000000, -4592.000000)">
            <g id="Services" transform="translate(230.000000, 4032.000000)">
                <g id="BRAND-IDENTITY" transform="translate(1.000000, 552.000000)">
                    <g id="film" transform="translate(157.750000, 0.000000)">
                        <g id="icomoon-ignore"></g>
                        <path d="M0,8.100625 L0,43.89775 L42.61725,43.89775 L42.61725,8.100625 L0,8.100625 L0,8.100625 Z M6.8185,42.19475 L1.704625,42.19475 L1.704625,35.37625 L6.8185,35.37625 L6.8185,42.19475 L6.8185,42.19475 Z M6.8185,33.671625 L1.704625,33.671625 L1.704625,26.853125 L6.8185,26.853125 L6.8185,33.671625 L6.8185,33.671625 Z M6.8185,25.1485 L1.704625,25.1485 L1.704625,18.33 L6.8185,18.33 L6.8185,25.1485 L6.8185,25.1485 Z M6.8185,16.625375 L1.704625,16.625375 L1.704625,9.806875 L6.8185,9.806875 L6.8185,16.625375 L6.8185,16.625375 Z M34.0925,19.465875 L34.0925,42.19475 L8.523125,42.19475 L8.523125,9.806875 L34.0925,9.806875 L34.0925,19.465875 L34.0925,19.465875 Z M40.912625,42.19475 L35.79875,42.19475 L35.79875,35.37625 L40.912625,35.37625 L40.912625,42.19475 L40.912625,42.19475 Z M40.912625,33.671625 L35.79875,33.671625 L35.79875,26.853125 L40.912625,26.853125 L40.912625,33.671625 L40.912625,33.671625 Z M40.912625,25.1485 L35.79875,25.1485 L35.79875,18.33 L40.912625,18.33 L40.912625,25.1485 L40.912625,25.1485 Z M40.912625,16.625375 L35.79875,16.625375 L35.79875,9.806875 L40.912625,9.806875 L40.912625,16.625375 L40.912625,16.625375 Z" id="Shape" fill="#3498DB"></path>
                        <path d="M17.04625,19.11 L17.04625,32.888375 L28.978625,26 L17.04625,19.11 L17.04625,19.11 Z M18.750875,22.062625 L25.569375,26 L18.750875,29.937375 L18.750875,22.06425 L18.750875,22.062625 Z" id="Shape" fill="#3498DB"></path>
                    </g>
                </g>
            </g>
        </g>
    </g>
</svg>