<?xml version="1.0" encoding="UTF-8"?>
<svg width="49px" height="50px" viewBox="0 0 49 50" version="1.1" xmlns="http://www.w3.org/2000/svg" xmlns:xlink="http://www.w3.org/1999/xlink">
    <!-- Generator: sketchtool 55.2 (78181) - https://sketchapp.com -->
    <title>17692CE8-3F38-4ED6-A980-CAEB573C0B6C</title>
    <desc>Created with sketchtool.</desc>
    <g id="Page-1" stroke="none" stroke-width="1" fill="none" fill-rule="evenodd">
        <g id="Index" transform="translate(-1165.000000, -4586.000000)">
            <g id="Services" transform="translate(230.000000, 4032.000000)">
                <g id="BRAND-IDENTITY" transform="translate(780.500000, 553.000000)">
                    <g id="pen" transform="translate(153.250000, 0.000000)">
                        <g id="icomoon-ignore"></g>
                        <path d="M50.002875,9.42825 L43.095,2.520375 L41.405,4.212 L39.039,1.847625 C38.701,1.509625 38.15175,1.509625 37.81375,1.847625 L23.777,15.886 C23.439,16.224 23.439,16.77325 23.777,17.11125 C23.946,17.28025 24.168625,17.36475 24.389625,17.36475 C24.610625,17.36475 24.83325,17.28025 25.00225,17.11125 L38.426375,3.6855 L40.17975,5.43725 L10.411375,35.204 L12.41825,37.210875 C11.57325,36.79325 10.6535,36.580375 9.73375,36.580375 C8.178625,36.580375 6.6235,37.1735 5.43725,38.35975 C5.315375,38.48 5.198375,38.61 5.08625,38.7465 C5.031,38.8115 4.977375,38.87975 4.927,38.946375 C4.86525,39.02275 4.808375,39.102375 4.753125,39.183625 C4.710875,39.242125 4.668625,39.300625 4.629625,39.359125 C2.110875,43.147 1.997125,50.39125 1.997125,50.39125 C1.997125,50.39125 2.260375,50.40425 2.718625,50.40425 C4.80025,50.40425 10.859875,50.119875 14.03025,46.9495 C15.9185,45.059625 16.29875,42.237 15.1775,39.966875 L17.320875,42.11025 L50.0045,9.426625 L50.002875,9.42825 Z M12.803375,45.725875 C10.869625,47.659625 7.476625,48.325875 5.057,48.555 L9.000875,44.611125 L7.775625,43.385875 L3.9975,47.164 C4.304625,44.85325 4.91725,42.05175 6.0775,40.311375 L6.12625,40.2415 L6.1685,40.181375 C6.205875,40.12775 6.244875,40.070875 6.3115,39.986375 C6.34075,39.949 6.368375,39.91 6.420375,39.849875 C6.49675,39.758875 6.57475,39.671125 6.660875,39.585 C7.4815,38.764375 8.571875,38.312625 9.732125,38.312625 C10.892375,38.312625 11.98275,38.764375 12.803375,39.585 C14.495,41.27825 14.495,44.032625 12.803375,45.725875 L12.803375,45.725875 Z M47.554,9.42825 L37.2775,19.70475 L32.8185,15.247375 L43.095,4.970875 L47.554,9.42825 L47.554,9.42825 Z M31.59325,16.471 L36.05225,20.928375 L17.31925,39.661375 L12.86025,35.204 L31.59325,16.471 L31.59325,16.471 Z" id="Shape" fill="#3498DB"></path>
                    </g>
                </g>
            </g>
        </g>
    </g>
</svg>