<?xml version="1.0" encoding="UTF-8"?>
<svg width="53px" height="34px" viewBox="0 0 53 34" version="1.1" xmlns="http://www.w3.org/2000/svg" xmlns:xlink="http://www.w3.org/1999/xlink">
    <!-- Generator: sketchtool 55.2 (78181) - https://sketchapp.com -->
    <title>77E71CFD-DCCF-4D89-8720-98E6E9B00D0E</title>
    <desc>Created with sketchtool.</desc>
    <g id="Page-1" stroke="none" stroke-width="1" fill="none" fill-rule="evenodd">
        <g id="Index" transform="translate(-1163.000000, -4290.000000)">
            <g id="Services" transform="translate(230.000000, 4032.000000)">
                <g id="BRAND-IDENTITY" transform="translate(780.000000, 249.000000)">
                    <g id="speaker" transform="translate(152.750000, 0.000000)">
                        <g id="icomoon-ignore" transform="translate(0.625000, 0.000000)"></g>
                        <path d="M0.590875,20.0126875 L0.590875,32.1416875 L5.78925,32.1416875 L5.78925,42.5384375 L7.5215,42.5384375 L7.5215,32.1416875 L20.84975,32.1416875 L33.50525,42.3824375 L33.50525,9.4615625 L20.770125,20.0126875 L0.590875,20.0126875 L0.590875,20.0126875 Z M2.32475,30.4078125 L2.32475,21.7449375 L9.255375,21.7449375 L9.255375,30.4078125 L2.32475,30.4078125 L2.32475,30.4078125 Z M21.875125,21.3468125 L31.771375,13.1470625 L31.771375,38.7505625 L21.462375,30.4094375 L10.986,30.4094375 L10.986,21.7465625 L21.3925,21.7465625 L21.8735,21.3484375 L21.875125,21.3468125 Z" id="Shape" fill="#3498DB"></path>
                        <path d="M45.496125,10.9890625 L44.24975,12.2354375 C48.304125,15.4090625 50.92525,20.3360625 50.92525,25.8724375 C50.92525,31.5566875 48.161125,36.5958125 43.919875,39.7564375 L45.174375,41.0109375 C49.72275,37.5285625 52.659125,32.0441875 52.659125,25.8724375 C52.659125,19.8501875 49.860875,14.4811875 45.49775,10.9890625 L45.496125,10.9890625 Z" id="Shape" fill="#3498DB"></path>
                        <path d="M39.928875,16.575 L38.6695,17.834375 C41.34425,19.524375 43.130125,22.498125 43.130125,25.8895 C43.130125,29.430375 41.185,32.5195 38.310375,34.162375 L39.573,35.425 C42.746625,33.43275 44.864,29.913 44.864,25.8895 C44.864,22.0155 42.9075,18.601375 39.9305,16.575 L39.928875,16.575 Z" id="Shape" fill="#3498DB"></path>
                    </g>
                </g>
            </g>
        </g>
    </g>
</svg>