<?xml version="1.0" encoding="UTF-8"?>
<svg width="48px" height="47px" viewBox="0 0 48 47" version="1.1" xmlns="http://www.w3.org/2000/svg" xmlns:xlink="http://www.w3.org/1999/xlink">
    <!-- Generator: sketchtool 55.2 (78181) - https://sketchapp.com -->
    <title>C5D2E5BA-8D5F-4FF0-BA4E-C892C534AD8F</title>
    <desc>Created with sketchtool.</desc>
    <g id="Page-1" stroke="none" stroke-width="1" fill="none" fill-rule="evenodd">
        <g id="Index" transform="translate(-385.000000, -4283.000000)">
            <g id="Services" transform="translate(230.000000, 4032.000000)">
                <g id="BRAND-IDENTITY" transform="translate(0.000000, 249.000000)">
                    <g id="vector" transform="translate(155.750000, 0.000000)">
                        <g id="icomoon-ignore"></g>
                        <path d="M42.6672,15.7872 L41.1312,17.3232 C37.8032,14.4224 33.536,12.8 29.0992,12.8 C26.112,12.8 23.1264,13.568 20.5664,14.9328 L27.0512,8.448 C27.5632,8.7888 28.16,8.96 28.7584,8.96 C29.6112,8.96 30.4656,8.6192 31.1472,7.936 C32.512,6.5712 32.512,4.4368 31.1472,3.072 C30.464,2.3888 29.6112,2.048 28.7584,2.048 C27.9056,2.048 27.0512,2.3888 26.3696,3.072 C25.2608,4.2672 25.0896,5.9728 25.8576,7.2528 L17.6656,15.4448 L16.1296,13.9088 L11.9488,18.0896 L13.4848,19.6256 L5.1216,27.9888 C4.6096,27.648 4.0128,27.4768 3.4144,27.4768 C2.5616,27.4768 1.7072,27.8176 1.0256,28.5008 C-0.3392,29.8656 -0.3392,32 1.0256,33.3648 C1.7088,33.9616 2.5616,34.304 3.4144,34.304 C4.2672,34.304 5.1216,33.9632 5.8032,33.28 C6.912,32.1712 7.0832,30.464 6.3152,29.0992 L12.8,22.6144 C9.3872,29.1856 10.1552,37.3776 15.1888,43.1792 L13.6528,44.8 L17.92,48.9808 L22.1008,44.8 L17.92,40.6192 L16.4688,42.0704 C11.52,36.2672 11.264,27.9056 15.4448,21.7616 L16.128,22.4448 L20.3952,18.264 L19.6272,17.5808 C22.3584,15.6176 25.6864,14.5936 29.0992,14.5936 C33.1104,14.5936 36.864,16.0448 39.936,18.6048 L38.4,20.056 L42.6672,24.2368 L46.848,20.056 L42.6672,15.7888 L42.6672,15.7872 Z M19.712,44.8 L17.92,46.592 L16.128,44.8 L17.92,43.008 L19.712,44.8 L19.712,44.8 Z M27.5632,4.352 C27.904,4.0112 28.3312,3.84 28.7584,3.84 C29.1856,3.84 29.6112,4.0112 29.9536,4.352 C30.6368,5.0352 30.6368,6.0592 29.9536,6.7408 C29.6128,7.0816 29.1856,7.2528 28.7584,7.2528 C28.3312,7.2528 27.9056,7.0816 27.5632,6.7408 C26.88,6.144 26.88,5.0336 27.5632,4.352 L27.5632,4.352 Z M4.608,32.0848 C4.2672,32.4256 3.84,32.5968 3.4128,32.5968 C2.9856,32.5968 2.56,32.4256 2.2176,32.0848 C1.8768,31.8288 1.7056,31.4016 1.7056,30.8896 C1.7056,30.4624 1.8768,30.0368 2.2176,29.6944 C2.5584,29.352 2.9856,29.1824 3.4128,29.1824 C3.84,29.1824 4.2656,29.3536 4.608,29.6944 C5.2912,30.3776 5.2912,31.4864 4.608,32.0832 L4.608,32.0848 Z M16.0432,20.0528 L14.2512,18.2608 L16.0432,16.4688 L17.8352,18.2608 L16.0432,20.0528 L16.0432,20.0528 Z M42.6672,21.8448 L40.8752,20.0528 L42.6672,18.2608 L44.4592,20.0528 L42.6672,21.8448 L42.6672,21.8448 Z" id="Shape" fill="#3498DB"></path>
                    </g>
                </g>
            </g>
        </g>
    </g>
</svg>